<?xml version="1.0" encoding="utf-8"?>
<!-- Generator: Adobe Illustrator 19.2.1, SVG Export Plug-In . SVG Version: 6.00 Build 0)  -->
<svg version="1.1" id="Layer_1" xmlns="http://www.w3.org/2000/svg" xmlns:xlink="http://www.w3.org/1999/xlink" x="0px" y="0px"
	 viewBox="0 0 494 154" style="enable-background:new 0 0 494 154;" xml:space="preserve">
<style type="text/css">
	.st0{fill:#F8971D;}
</style>
<g>
	<path class="st0" d="M195.4,83.4c1.8-0.2,3.1-1,3.7-2.3c0.4-0.7,0.5-1.7,0.5-3.1c0-2.7-1-4.7-2.9-6c-1.9-1.2-4.7-1.9-8.3-1.9
		c-4.2,0-7.1,1.1-8.9,3.4c-1,1.3-1.6,3.1-1.9,5.6h-7.5c0.1-5.9,2-10,5.7-12.3c3.7-2.3,7.9-3.5,12.7-3.5c5.6,0,10.1,1.1,13.6,3.2
		c3.5,2.1,5.2,5.4,5.2,10V104c0,0.8,0.2,1.5,0.5,2c0.3,0.5,1.1,0.8,2.2,0.8c0.4,0,0.8,0,1.2-0.1c0.4,0,0.9-0.1,1.4-0.2v5.9
		c-1.2,0.4-2.2,0.6-2.8,0.7c-0.7,0.1-1.5,0.1-2.7,0.1c-2.8,0-4.8-1-6-2.9c-0.7-1-1.1-2.5-1.4-4.4c-1.6,2.1-4,4-7,5.6
		c-3.1,1.6-6.4,2.4-10.1,2.4c-4.4,0-8-1.3-10.8-4c-2.8-2.7-4.2-6-4.2-10c0-4.4,1.4-7.8,4.1-10.2c2.8-2.4,6.4-3.9,10.8-4.5
		L195.4,83.4z M178.6,105c1.7,1.3,3.7,2,6,2c2.8,0,5.5-0.7,8.2-2c4.4-2.2,6.7-5.7,6.7-10.6V88c-1,0.6-2.2,1.1-3.8,1.6
		c-1.5,0.4-3,0.7-4.5,0.9l-4.8,0.6c-2.9,0.4-5.1,1-6.5,1.8c-2.5,1.4-3.7,3.6-3.7,6.6C176.1,101.8,176.9,103.7,178.6,105z"/>
	<path class="st0" d="M219.1,46.9h8v65.3h-8V46.9z"/>
	<path class="st0" d="M236.5,64.6h7.9v6.8c1.9-2.3,3.6-4,5.2-5.1c2.6-1.8,5.6-2.7,9-2.7c3.8,0,6.8,0.9,9.2,2.8
		c1.3,1.1,2.5,2.6,3.6,4.7c1.8-2.5,3.9-4.4,6.3-5.7c2.4-1.2,5.1-1.8,8.1-1.8c6.4,0,10.8,2.3,13.1,6.9c1.2,2.5,1.9,5.8,1.9,10v31.7
		h-8.3V79.1c0-3.2-0.8-5.3-2.4-6.5c-1.6-1.2-3.5-1.8-5.8-1.8c-3.1,0-5.8,1.1-8.1,3.2c-2.3,2.1-3.4,5.6-3.4,10.5v27.7h-8.1V81.1
		c0-3.2-0.4-5.6-1.2-7.1c-1.2-2.2-3.5-3.3-6.8-3.3c-3,0-5.8,1.2-8.2,3.5c-2.5,2.3-3.7,6.6-3.7,12.7v25.2h-8V64.6z"/>
	<path class="st0" d="M333.7,83.4c1.8-0.2,3.1-1,3.7-2.3c0.4-0.7,0.5-1.7,0.5-3.1c0-2.7-1-4.7-2.9-6c-1.9-1.2-4.7-1.9-8.3-1.9
		c-4.2,0-7.1,1.1-8.9,3.4c-1,1.3-1.6,3.1-1.9,5.6h-7.5c0.1-5.9,2-10,5.7-12.3c3.7-2.3,7.9-3.5,12.7-3.5c5.6,0,10.1,1.1,13.6,3.2
		c3.5,2.1,5.2,5.4,5.2,10V104c0,0.8,0.2,1.5,0.5,2c0.3,0.5,1.1,0.8,2.2,0.8c0.4,0,0.8,0,1.2-0.1c0.4,0,0.9-0.1,1.4-0.2v5.9
		c-1.2,0.4-2.2,0.6-2.8,0.7c-0.7,0.1-1.5,0.1-2.7,0.1c-2.8,0-4.8-1-6-2.9c-0.7-1-1.1-2.5-1.4-4.4c-1.6,2.1-4,4-7,5.6
		c-3.1,1.6-6.4,2.4-10.1,2.4c-4.4,0-8-1.3-10.8-4c-2.8-2.7-4.2-6-4.2-10c0-4.4,1.4-7.8,4.1-10.2c2.8-2.4,6.4-3.9,10.8-4.5
		L333.7,83.4z M316.9,105c1.7,1.3,3.7,2,6,2c2.8,0,5.5-0.7,8.2-2c4.4-2.2,6.7-5.7,6.7-10.6V88c-1,0.6-2.2,1.1-3.8,1.6
		c-1.5,0.4-3,0.7-4.5,0.9l-4.8,0.6c-2.9,0.4-5.1,1-6.5,1.8c-2.5,1.4-3.7,3.6-3.7,6.6C314.4,101.8,315.2,103.7,316.9,105z"/>
	<path class="st0" d="M356.6,64.6h7.6v6.8c2.2-2.8,4.6-4.8,7.2-6c2.5-1.2,5.3-1.8,8.4-1.8c6.8,0,11.3,2.4,13.7,7.1
		c1.3,2.6,2,6.3,2,11.1v30.5h-8.1v-30c0-2.9-0.4-5.2-1.3-7c-1.4-3-4-4.4-7.7-4.4c-1.9,0-3.5,0.2-4.7,0.6c-2.2,0.7-4.1,2-5.8,3.9
		c-1.3,1.6-2.2,3.2-2.6,4.9c-0.4,1.7-0.6,4.1-0.6,7.2v24.9h-8V64.6z"/>
	<path class="st0" d="M426.7,97.3c0.2,2.7,0.9,4.7,2,6.1c2.1,2.6,5.6,3.9,10.7,3.9c3,0,5.7-0.6,8-1.9c2.3-1.3,3.4-3.3,3.4-6
		c0-2-0.9-3.6-2.8-4.7c-1.2-0.6-3.5-1.4-7-2.3l-6.5-1.6c-4.1-1-7.2-2.1-9.1-3.4c-3.5-2.2-5.2-5.2-5.2-9c0-4.5,1.6-8.1,4.9-10.9
		c3.3-2.8,7.7-4.2,13.3-4.2c7.3,0,12.5,2.1,15.7,6.3c2,2.7,3,5.5,2.9,8.6h-7.6c-0.2-1.8-0.8-3.4-2-4.9c-1.9-2.1-5.1-3.1-9.8-3.1
		c-3.1,0-5.4,0.6-7,1.7c-1.6,1.2-2.4,2.7-2.4,4.6c0,2.1,1,3.7,3.1,5c1.2,0.7,3,1.4,5.3,2l5.4,1.3c5.9,1.4,9.8,2.7,11.8,4
		c3.1,2,4.7,5.3,4.7,9.6c0,4.2-1.6,7.9-4.9,11c-3.3,3.1-8.2,4.6-14.9,4.6c-7.2,0-12.2-1.6-15.2-4.8c-3-3.2-4.6-7.2-4.8-11.9H426.7z"
		/>
	<path class="st0" d="M462.1,104.2h8.1v8.1h-8.1V104.2z"/>
	<g>
		<path class="st0" d="M404,64.8h8.1v47.4H404V64.8z"/>
		<path class="st0" d="M404,46.8h8.1V55H404V46.8z"/>
	</g>
</g>
<path class="st0" d="M147.1,63.7L92.4,14.5C92,14.1,91.5,14,91,14.2L16,38.4c-0.6,0.2-1.1,0.8-1,1.5l2.3,56c0,0.6,0.4,1.1,1,1.3
	l70,25.8l-2.7,16.1c0,0,0,0,0,0c0,0,0,0.1,0,0.1c0,0.5,0.2,1,0.6,1.3c0.3,0.2,0.6,0.3,0.9,0.3c0.2,0,0.4-0.1,0.7-0.2l22.3-11.1
	c0.2-0.1,0.4-0.2,0.5-0.4l22.4-29.3c0.1-0.1,0.1-0.2,0.2-0.3l14.3-34.2C147.7,64.8,147.6,64.1,147.1,63.7z M104.1,123.5l3.9,3.7
	l-18,9L104.1,123.5z M92.5,132.8l9.1-11.7l1.9,1.8L92.5,132.8z M104.8,123l2.7-2.4l1,5.9L104.8,123z M104.1,122.3l-2-1.9l4.4-5.7
	l0.8,4.8L104.1,122.3z M101.3,82.9L18.5,41l-0.2-0.2l72.4-23.4L101.3,82.9z M101.5,84l2.2,13.4L77,96.6L20.7,43.2L101.5,84z
	 M118.5,97.9l-13.8-0.4l-2.1-13l18.9,9.6L118.5,97.9z M122.2,94.5l7.5,3.8L119.5,98L122.2,94.5z M117.8,98.8l-10.7,13.7l-2.3-14.1
	L117.8,98.8z M103.9,98.4l2.5,15.1l-4.9,6.3L78,97.5L103.9,98.4z M107.3,113.7l11.6-14.9l10.9,0.3l-0.7,0.9l-20.9,18.7L107.3,113.7z
	 M122.8,93.8l3.4-4.3l3.9,8L122.8,93.8z M122,93.4l-19.7-9.9l-10.6-65l34,70.1L122,93.4z M92.9,18.9l51.2,46l-17.7,22.8L92.9,18.9z
	 M18,41.9l57.7,54.7l-55.3-1.7l-0.2-0.1L18,41.9z M23,95.8l53.6,1.7l24.2,23l-11.7,15.1l2.2-13.3c0.1-0.7-0.3-1.4-1-1.6L23,95.8z
	 M109.3,125.9l-1-6.1l17.8-16L109.3,125.9z M130.9,97.2l-4.1-8.5l16.7-21.5L130.9,97.2z"/>
</svg>
